<svg id="Layer_1" data-name="Layer 1" xmlns="http://www.w3.org/2000/svg" viewBox="0 0 120 120"><defs><style>.cls-1{fill:#82bcec;isolation:isolate;opacity:0.6;}.cls-2{fill:#1a4569;}</style></defs><rect class="cls-1" width="120" height="120"/><path class="cls-2" d="M91.45,88.35H88.72V80.14A2.74,2.74,0,0,0,86,77.41H66.84a2.74,2.74,0,0,0-2.74,2.73H45a2.62,2.62,0,0,0-.84.17A11.09,11.09,0,0,0,42.27,79c.41-20.12,10.65-26.52,15-28.32l1.48,2.79a2.73,2.73,0,0,0,2.41,1.45,2.69,2.69,0,0,0,1.28-.31l12.08-6.41a2.74,2.74,0,0,0,1.14-3.7l-9-16.91a2.78,2.78,0,0,0-1.61-1.34,2.73,2.73,0,0,0-2.08.2l-.6.32L60,22.17A2.73,2.73,0,0,0,56.29,21l-6.76,3.59a2.73,2.73,0,0,0-1.33,1.61,2.77,2.77,0,0,0,.2,2.09l2.43,4.58a2.73,2.73,0,0,0-1,3.62l.48.9c-5.69,2.84-21.72,13.41-21.72,42.72a2.62,2.62,0,0,0,.17.84A10.9,10.9,0,1,0,46.17,93.82H91.45a2.74,2.74,0,1,0,0-5.47Zm-8.2-5.47v5.47H69.57V82.88ZM69.56,44.6l-7.24,3.85L55.91,36.37l7.24-3.84ZM56.44,27.15l.76,1.43-1.92,1-.77-1.43Zm-3.61,15.1,1.9,3.57a26.23,26.23,0,0,0-7.56,5.11c-4.47,4.29-9.75,12.31-10.35,26.48h-.07a11,11,0,0,0-2.64.36C35,53,48.57,44.33,52.83,42.25ZM36.75,93.82a5.47,5.47,0,1,1,5.47-5.47A5.48,5.48,0,0,1,36.75,93.82Zm10.56-8.21H64.1v2.74H47.69A11.25,11.25,0,0,0,47.31,85.61Zm-7.82,2.74a2.74,2.74,0,1,1-2.74-2.74A2.74,2.74,0,0,1,39.49,88.35Z"/></svg>