<svg id="Layer_1" data-name="Layer 1" xmlns="http://www.w3.org/2000/svg" viewBox="0 0 120 120"><defs><style>.cls-1{fill:#82bcec;isolation:isolate;opacity:0.6;}.cls-2{fill:none;stroke:#1a4569;stroke-linecap:round;stroke-linejoin:round;stroke-width:5px;}</style></defs><rect class="cls-1" width="120" height="120"/><path class="cls-2" d="M33.58,25.87C44.46,36.74,50.37,36.23,56.06,37a11,11,0,0,1,7,3.21,8.11,8.11,0,0,1-4.56,13.78,5.16,5.16,0,0,1-1.76,0,2.71,2.71,0,0,0-2.9,2.9V58.6a8.11,8.11,0,0,1-13.78,4.56,11,11,0,0,1-3.21-7c-.62-5.7-.21-11.61-11.09-22.48"/><path class="cls-2" d="M86.52,94.13C75.64,83.26,69.74,83.77,63.94,83.05a11,11,0,0,1-7-3.21,8.11,8.11,0,0,1,4.56-13.78,5.16,5.16,0,0,1,1.76,0,2.71,2.71,0,0,0,2.9-2.9V61.4a8.11,8.11,0,0,1,13.78-4.56,11,11,0,0,1,3.21,7c.73,5.81.21,11.61,11.08,22.48"/><path class="cls-2" d="M88,32,78,41.92"/><path class="cls-2" d="M71.08,25.87V39"/><path class="cls-2" d="M94.18,49H80.93"/></svg>