<svg id="Layer_1" data-name="Layer 1" xmlns="http://www.w3.org/2000/svg" viewBox="0 0 120 120"><defs><style>.cls-1{fill:#82bcec;isolation:isolate;opacity:0.6;}.cls-2{fill:#1a4569;}</style></defs><rect class="cls-1" width="120" height="120"/><path class="cls-2" d="M94,66.33s0,0,0,0L88.18,54.07A2.47,2.47,0,0,0,86,52.67H84.42a2.45,2.45,0,0,0-4.89,0H77.09V50.23a2.44,2.44,0,0,0-2.44-2.44H28.26a2.45,2.45,0,0,0-2.45,2.44v29.3A2.45,2.45,0,0,0,28.26,82H36a7.29,7.29,0,0,0,13.77,0h0c.06,0,.11,0,.18,0H67.46c.1,0,.19,0,.29-.06a0,0,0,0,1,0,0,7.3,7.3,0,0,0,13.8,0s0,0,0,0A1.87,1.87,0,0,0,82,82h9.76a2.45,2.45,0,0,0,2.44-2.45V67.33A2.36,2.36,0,0,0,94,66.33Zm-9.54-8.77,3.47,7.32H84.42V57.56ZM30.7,52.67H72.21V72a2.62,2.62,0,0,0,.11.57h0a7.22,7.22,0,0,0-4.52,4.5,0,0,0,0,1,0,0c-.1,0-.19-.06-.29-.06H50a1,1,0,0,0-.18,0h0a7.29,7.29,0,0,0-13.77,0H30.7ZM42.91,82a2.45,2.45,0,1,1,2.44-2.45A2.45,2.45,0,0,1,42.91,82Zm31.74,0a2.45,2.45,0,1,1,2.44-2.45A2.45,2.45,0,0,1,74.65,82ZM82,77.09a2.7,2.7,0,0,0-.41.08s0,0,0,0A7.28,7.28,0,0,0,77,72.62h0a2.62,2.62,0,0,0,.11-.57V57.56h2.44v9.77A2.45,2.45,0,0,0,82,69.77H89.3v7.32ZM50.23,64.88a2.44,2.44,0,0,1,2.44-2.44h2.45V60A2.44,2.44,0,1,1,60,60v2.44h2.44a2.45,2.45,0,0,1,0,4.89H60v2.44a2.44,2.44,0,1,1-4.88,0V67.33H52.67A2.45,2.45,0,0,1,50.23,64.88Zm29.3-24.41V35.58a2.45,2.45,0,0,1,4.89,0v4.89a2.45,2.45,0,0,1-4.89,0Zm7.59,1.35,2.44-4.89a2.44,2.44,0,0,1,4.37,2.19L91.48,44a2.42,2.42,0,0,1-2.18,1.35,2.36,2.36,0,0,1-1.09-.26A2.43,2.43,0,0,1,87.12,41.82ZM70,39.12a2.44,2.44,0,0,1,4.37-2.19l2.44,4.89a2.43,2.43,0,0,1-1.09,3.27,2.36,2.36,0,0,1-1.09.26A2.43,2.43,0,0,1,72.47,44Z"/></svg>